0
SECTION
2
HEADER
9
$INSUNITS
70
4
9
$ACADVER
1
AC1014
9
$HANDSEED
5
FFFF
0
ENDSEC
0
SECTION
2
TABLES
0
TABLE
2
VPORT
5
8
100
AcDbSymbolTable
0
ENDTAB
0
TABLE
2
LTYPE
5
5
100
AcDbSymbolTable
0
LTYPE
5
14
100
AcDbSymbolTableRecord
100
AcDbLinetypeTableRecord
2
BYBLOCK
70
0
0
LTYPE
5
15
100
AcDbSymbolTableRecord
100
AcDbLinetypeTableRecord
2
BYLAYER
70
0
0
LTYPE
5
16
100
AcDbSymbolTableRecord
100
AcDbLinetypeTableRecord
2
DASHED
70
0
3
Dashed __ __ __ __ __ __ __ __ __ __ __ __ __ _
72
65
73
2
40
0.75
49
0.5
74
0
49
-0.25
74
0
0
ENDTAB
0
TABLE
2
LAYER
5
2
100
AcDbSymbolTable
70
2
0
LAYER
5
50
100
AcDbSymbolTableRecord
100
AcDbLayerTableRecord
2
0
70
0
62
7
6
CONTINUOUS
0
ENDTAB
0
TABLE
2
STYLE
5
3
100
AcDbSymbolTable
70
1
0
STYLE
5
11
100
AcDbSymbolTableRecord
100
AcDbTextStyleTableRecord
2
STANDARD
70
0
0
ENDTAB
0
TABLE
2
VIEW
5
6
100
AcDbSymbolTable
70
0
0
ENDTAB
0
TABLE
2
UCS
5
7
100
AcDbSymbolTable
70
0
0
ENDTAB
0
TABLE
2
APPID
5
9
100
AcDbSymbolTable
70
2
0
APPID
5
12
100
AcDbSymbolTableRecord
100
AcDbRegAppTableRecord
2
ACAD
70
0
0
ENDTAB
0
TABLE
2
DIMSTYLE
5
A
100
AcDbSymbolTable
70
1
0
ENDTAB
0
TABLE
2
BLOCK_RECORD
5
1
100
AcDbSymbolTable
70
1
0
BLOCK_RECORD
5
1F
100
AcDbSymbolTableRecord
100
AcDbBlockTableRecord
2
*MODEL_SPACE
0
BLOCK_RECORD
5
1B
100
AcDbSymbolTableRecord
100
AcDbBlockTableRecord
2
*PAPER_SPACE
0
ENDTAB
0
ENDSEC
0
SECTION
2
BLOCKS
0
BLOCK
5
20
100
AcDbEntity
100
AcDbBlockBegin
2
*MODEL_SPACE
0
ENDBLK
5
21
100
AcDbEntity
100
AcDbBlockEnd
0
BLOCK
5
1C
100
AcDbEntity
100
AcDbBlockBegin
2
*PAPER_SPACE
0
ENDBLK
5
1D
100
AcDbEntity
100
AcDbBlockEnd
0
ENDSEC
0
SECTION
2
ENTITIES
0
POINT
5
100
100
AcDbEntity
8
0
100
AcDbPoint
10
0
20
0
30
0
0
POINT
5
101
100
AcDbEntity
8
0
100
AcDbPoint
10
0
20
0
30
0
0
POINT
5
102
100
AcDbEntity
8
0
100
AcDbPoint
10
1950.0000000000045
20
1349.9999999999998
30
0
0
LINE
5
103
100
AcDbEntity
8
0
100
AcDbLine
10
-1550.0000000000014
20
949.99999999999955
30
0
11
-1550.000000000002
21
-1100.0000000000005
31
0
0
LINE
5
104
100
AcDbEntity
8
0
100
AcDbLine
10
1349.9999999999995
20
-1100.0000000000005
30
0
11
-1550.000000000002
21
-1100.0000000000009
31
0
0
LINE
5
105
100
AcDbEntity
8
0
100
AcDbLine
10
1349.9999999999995
20
-1100.0000000000005
30
0
11
1350
21
-800.00000000000057
31
0
0
LINE
5
106
100
AcDbEntity
8
0
100
AcDbLine
10
1999.9999999999995
20
-700
30
0
11
1999.9999999999995
21
-1200
31
0
0
LINE
5
107
100
AcDbEntity
8
0
100
AcDbLine
10
1999.9999999999995
20
-1200
30
0
11
2499.9999999999995
21
-1200
31
0
0
LINE
5
108
100
AcDbEntity
8
0
100
AcDbLine
10
2499.9999999999995
20
-1200
30
0
11
2499.9999999999995
21
-700
31
0
0
LINE
5
109
100
AcDbEntity
8
0
100
AcDbLine
10
1350
20
-800.00000000000057
30
0
11
1350.0000000000045
21
750
31
0
0
LINE
5
110
100
AcDbEntity
8
0
100
AcDbLine
10
1350.0000000000018
20
0
30
0
11
950.00000000000159
21
-3.1762498185431937e-13
31
0
0
LINE
5
111
100
AcDbEntity
8
0
100
AcDbLine
10
2249.9999999999995
20
-1120
30
0
11
2249.9999999999995
21
150
31
0
0
ARC
5
112
100
AcDbEntity
8
0
100
AcDbCircle
10
2749.9999999999991
20
150
30
0
40
500
210
0
220
-0
230
1
100
AcDbArc
50
90
51
180
0
LINE
5
113
100
AcDbEntity
8
0
100
AcDbLine
10
2749.9999999999991
20
650
30
0
11
2949.9999999999991
21
650
31
0
0
ARC
5
114
100
AcDbEntity
8
0
100
AcDbCircle
10
2949.9999999999991
20
150
30
0
40
500
210
-0
220
0
230
1
100
AcDbArc
50
0
51
90
0
LINE
5
115
100
AcDbEntity
8
0
100
AcDbLine
10
3449.9999999999991
20
150
30
0
11
3450
21
-750.00000000000023
31
0
0
LINE
5
116
100
AcDbEntity
8
0
100
AcDbLine
10
1774.2640687119331
20
925.73593128807147
30
0
11
2037.867965644032
21
662.13203435597279
31
0
0
ARC
5
117
100
AcDbEntity
8
0
100
AcDbCircle
10
1525.735931288059
20
150
30
0
40
724.26406871194047
210
-0
220
0
230
1
100
AcDbArc
50
0
51
44.999999999999986
0
CIRCLE
5
118
100
AcDbEntity
8
0
100
AcDbCircle
10
1350.0000000000045
20
1350
30
0
40
600
210
0
220
0
230
1
0
LINE
5
119
100
AcDbEntity
8
0
100
AcDbLine
10
750.00000000000455
20
1350
30
0
11
-1249.9999999796732
21
1350.0000000000002
31
0
0
LINE
5
120
100
AcDbEntity
8
0
100
AcDbLine
10
3875.0000000718637
20
3779.9999999904053
30
0
11
1900.0000000002792
21
3779.9999999999991
31
0
0
ARC
5
121
100
AcDbEntity
8
0
100
AcDbCircle
10
1900.0000000002792
20
3229.9999999997249
30
0
40
550.00000000027399
210
0
220
-0
230
1
100
AcDbArc
50
90
51
180
0
LINE
5
122
100
AcDbEntity
8
0
100
AcDbLine
10
1350.000000000005
20
3229.9999999997253
30
0
11
1350.0000000000045
21
1950
31
0
0
LINE
5
123
100
AcDbEntity
8
0
100
AcDbLine
10
-649.99999992631615
20
1070
30
0
11
-649.99999992631615
21
2880.0000000000091
31
0
0
LWPOLYLINE
5
124
100
AcDbEntity
8
0
100
AcDbPolyline
90
8
70
1
43
0.0
10
-1549.9999999263146
20
5480
10
-49.999999926315027
20
5480
10
3450.000000073685
20
5480
10
3450.000000073685
20
4880
10
-49.999999926314459
20
4880
10
-49.999999926315027
20
5480
10
-49.999999926314459
20
4480.0000000000009
10
-1549.9999999263161
20
4480
0
LWPOLYLINE
5
125
100
AcDbEntity
8
0
100
AcDbPolyline
90
18
70
1
43
0.0
10
-1549.9999999263161
20
4480
10
-949.99999992631615
20
4480.0000000000091
10
-349.99999992631609
20
4480.0000000000091
10
-349.99999992631609
20
4080.0000000000091
10
-949.99999992631615
20
4080.0000000000091
10
-949.99999992631615
20
3680.0000000000091
10
-349.99999992631609
20
3680.0000000000091
10
-949.99999992631615
20
3680.0000000000091
10
-949.99999992631615
20
3280.0000000000091
10
-949.99999992631615
20
2880.0000000000091
10
-349.99999992631609
20
2880.0000000000091
10
-349.99999992631609
20
3280.0000000000091
10
-349.99999992631609
20
3680.0000000000091
10
-349.99999992631609
20
4080.0000000000091
10
-949.99999992631615
20
4080.0000000000091
10
-949.99999992631615
20
4480.0000000000091
10
-949.99999992631615
20
2400
10
-1549.9999999263161
20
2400
0
LWPOLYLINE
5
126
100
AcDbEntity
8
0
100
AcDbPolyline
90
4
70
1
43
0.0
10
-2049.9999999999995
20
5979.9999999999991
10
5119.9999999999991
20
5979.9999999999991
10
5119.9999999999991
20
-1600.0000000000002
10
-2050.0000000000014
20
-1600.0000000000009
0
LWPOLYLINE
5
127
100
AcDbEntity
8
0
100
AcDbPolyline
90
4
70
1
43
0.0
10
-424.26406871193024
20
-1.4210854715202004e-13
10
-2.8421709430404007e-13
20
424.26406871192938
10
424.26406871192842
20
5.6843418860808015e-13
10
1.4210854715202004e-12
20
-424.26406871192881
0
LINE
5
128
100
AcDbEntity
8
0
100
AcDbLine
10
-424.26406871193024
20
-1.4210854715202004e-13
30
0
11
424.26406871192842
21
5.6843418860808015e-13
31
0
6
DASHED
0
LINE
5
129
100
AcDbEntity
8
0
100
AcDbLine
10
-212.13203435596455
20
212.13203435596512
30
0
11
212.13203435596498
21
-212.13203435596427
31
0
0
LINE
5
130
100
AcDbEntity
8
0
100
AcDbLine
10
212.13203435596412
20
212.13203435596512
30
0
11
-212.13203435596313
21
-212.1320343559637
31
0
0
LINE
5
131
100
AcDbEntity
8
0
100
AcDbLine
10
4619.9999999999991
20
3300
30
0
11
4620
21
300
31
0
0
LINE
5
132
100
AcDbEntity
8
0
100
AcDbLine
10
4250.0000000736854
20
4805
30
0
11
4250.0000000736854
21
4155
31
0
0
ARC
5
133
100
AcDbEntity
8
0
100
AcDbCircle
10
3875.0000000736854
20
4155
30
0
40
375.0000000095946
210
0
220
0
230
1
100
AcDbArc
50
-90.000000000278362
51
0
0
ARC
5
134
100
AcDbEntity
8
0
100
AcDbCircle
10
3875.000000073685
20
4805
30
0
40
375
210
0
220
-0
230
1
100
AcDbArc
50
0
51
89.999999999999801
0
LINE
5
135
100
AcDbEntity
8
0
100
AcDbLine
10
-1249.9999999263161
20
4480.0000000000045
30
0
11
-1249.9999999263161
21
4780.0000000000045
31
0
0
ARC
5
136
100
AcDbEntity
8
0
100
AcDbCircle
10
-849.99999992631615
20
4780.0000000000045
30
0
40
399.99999999999886
210
0
220
-0
230
1
100
AcDbArc
50
89.999999999999773
51
180
0
LWPOLYLINE
5
137
100
AcDbEntity
8
0
100
AcDbPolyline
90
2
70
1
43
0.0
10
-949.99999992631615
20
3280.0000000000091
10
-349.99999992631609
20
3280.0000000000091
0
LINE
5
138
100
AcDbEntity
8
0
100
AcDbLine
10
-649.99999992631615
20
4480.0000000000091
30
0
11
-649.99999992631615
21
4780.0000000000091
31
0
0
ARC
5
139
100
AcDbEntity
8
0
100
AcDbCircle
10
-249.99999992632297
20
4780.00000000001
30
0
40
399.99999999999318
210
0
220
-0
230
1
100
AcDbArc
50
90
51
180
0
CIRCLE
5
140
100
AcDbEntity
8
0
100
AcDbCircle
10
-249.99999992631444
20
4680.0000000000009
30
0
40
21.499999999999986
210
0
220
0
230
1
0
LWPOLYLINE
5
141
100
AcDbEntity
8
0
100
AcDbPolyline
90
4
70
1
43
0.0
10
300.0000000736855
20
4880
10
750.00000007368556
20
4880
10
750.00000007368556
20
2880
10
300.0000000736855
20
2880
0
LINE
5
142
100
AcDbEntity
8
0
100
AcDbLine
10
1350.0000000000045
20
1350
30
0
11
1350.0000000000045
21
1950
31
0
6
DASHED
0
LINE
5
143
100
AcDbEntity
8
0
100
AcDbLine
10
1350.0000000000045
20
1350
30
0
11
750.00000000000455
21
1350
31
0
6
DASHED
0
LINE
5
144
100
AcDbEntity
8
0
100
AcDbLine
10
1350.0000000000045
20
1350
30
0
11
1350.0000000000045
21
750
31
0
6
DASHED
0
LINE
5
145
100
AcDbEntity
8
0
100
AcDbLine
10
1350.0000000000045
20
1350
30
0
11
1774.2640687119331
21
925.73593128807147
31
0
6
DASHED
0
LINE
5
146
100
AcDbEntity
8
0
100
AcDbLine
10
2249.9999999999995
20
-1120
30
0
11
2249.9999999999995
21
-1200
31
0
6
DASHED
0
CIRCLE
5
147
100
AcDbEntity
8
0
100
AcDbCircle
10
4619.9999999999991
20
2400.0000000000005
30
0
40
50
210
0
220
0
230
1
0
LWPOLYLINE
5
148
100
AcDbEntity
8
0
100
AcDbPolyline
90
4
70
1
43
0.0
10
2974.6392896781431
20
1912.7081021087722
42
0.57692307692307621
10
3625.3607103218742
20
1912.7081021087706
42
-3.7272727272726898
10
3625.3607103218737
20
1537.2918978912355
42
0.57692307692307609
10
2974.6392896781435
20
1537.2918978912339
42
-3.727272727272736
0
LINE
5
149
100
AcDbEntity
8
0
100
AcDbLine
10
2650.0000000000045
20
1725.0000000000027
30
0
11
3950.0000000000045
21
1725.0000000000027
31
0
6
DASHED
0
LINE
5
150
100
AcDbEntity
8
0
100
AcDbLine
10
1350.0000000000045
20
1350
30
0
11
2650.0000000000045
21
1350
31
0
6
DASHED
0
LINE
5
151
100
AcDbEntity
8
0
100
AcDbLine
10
3950.0000000000045
20
1725.0000000000027
30
0
11
3950.0000000000045
21
2099.9999999999991
31
0
6
DASHED
0
LINE
5
152
100
AcDbEntity
8
0
100
AcDbLine
10
300.0000000736855
20
3880
30
0
11
750.00000007368556
21
3880
31
0
6
DASHED
0
LINE
5
153
100
AcDbEntity
8
0
100
AcDbLine
10
525.00000007368567
20
4880
30
0
11
525.00000007368544
21
2880
31
0
0
CIRCLE
5
154
100
AcDbEntity
8
0
100
AcDbCircle
10
525.00000007368567
20
3680
30
0
40
21.499999999999957
210
0
220
0
230
1
0
LINE
5
155
100
AcDbEntity
8
0
100
AcDbLine
10
-1249.9999999796732
20
1350.0000000000002
30
0
11
-1249.9999999263161
21
2400
31
0
0
LINE
5
156
100
AcDbEntity
8
0
100
AcDbLine
10
-1249.9999999263161
20
2400
30
0
11
-1249.9999999263161
21
4480.0000000000045
31
0
0
LINE
5
157
100
AcDbEntity
8
0
100
AcDbLine
10
-849.99999992631444
20
5180.0000000000036
30
0
11
-49.999999926314459
21
5180
31
0
0
LINE
5
158
100
AcDbEntity
8
0
100
AcDbLine
10
-49.999999926314459
20
5180
30
0
11
3450.000000073685
21
5180
31
0
0
LINE
5
159
100
AcDbEntity
8
0
100
AcDbLine
10
3875.0000000736864
20
5180
30
0
11
3450.000000073685
21
5180
31
0
0
LINE
5
160
100
AcDbEntity
8
0
100
AcDbLine
10
525.00000007368567
20
4880
30
0
11
525.00000007368556
21
5180
31
0
0
LINE
5
161
100
AcDbEntity
8
0
100
AcDbLine
10
-649.99999992631615
20
4480.0000000000091
30
0
11
-649.99999992631615
21
4080.0000000000091
31
0
0
LINE
5
162
100
AcDbEntity
8
0
100
AcDbLine
10
-649.99999992631615
20
4080.0000000000091
30
0
11
-649.99999992631615
21
3680.0000000000091
31
0
0
LINE
5
163
100
AcDbEntity
8
0
100
AcDbLine
10
-649.99999992631615
20
3680.0000000000091
30
0
11
-649.99999992631615
21
3280.0000000000091
31
0
0
LINE
5
164
100
AcDbEntity
8
0
100
AcDbLine
10
-649.99999992631615
20
3280.0000000000091
30
0
11
-649.99999992631615
21
2880.0000000000091
31
0
0
LINE
5
165
100
AcDbEntity
8
0
100
AcDbLine
10
-49.999999926314459
20
5170
30
0
11
3450.000000073685
21
5170
31
0
0
LINE
5
166
100
AcDbEntity
8
0
100
AcDbLine
10
-49.999999926314459
20
5190
30
0
11
3450.000000073685
21
5190
31
0
0
LINE
5
167
100
AcDbEntity
8
0
100
AcDbLine
10
535.00000007368567
20
4880
30
0
11
535.00000007368556
21
5180
31
0
0
LINE
5
168
100
AcDbEntity
8
0
100
AcDbLine
10
515.00000007368567
20
4880
30
0
11
515.00000007368556
21
5180
31
0
0
CIRCLE
5
169
100
AcDbEntity
8
0
100
AcDbCircle
10
-1550.000000000002
20
-620.00000000000057
30
0
40
50
210
0
220
0
230
1
0
LINE
5
170
100
AcDbEntity
8
0
100
AcDbLine
10
-1550.000000000002
20
-620.00000000000057
30
0
11
-1350.000000000002
21
-620.00000000000068
31
0
0
LINE
5
171
100
AcDbEntity
8
0
100
AcDbLine
10
4619.9999999999991
20
2400.0000000000005
30
0
11
4419.9999999999991
21
2400.0000000000005
31
0
0
ENDSEC
0
SECTION
2
OBJECTS
0
DICTIONARY
5
C
100
AcDbDictionary
3
ACAD_GROUP
350
D
3
ACAD_MLINESTYLE
350
17
0
DICTIONARY
5
D
100
AcDbDictionary
0
DICTIONARY
5
1A
330
C
100
AcDbDictionary
0
DICTIONARY
5
17
100
AcDbDictionary
0
ENDSEC
0
EOF
